# xmcd
# 
# Track frame offsets:
#     150
#     9250
#     38887
# 
# Disc length: 832
# 
# Revision: 0
# Processed by: cddbd v1.5.2PL0 Copyright (c) Steve Scherf et al.
# Submitted via: fre:ac v1.0.31
# 
DISCID=16033e03
DTITLE=Speed Learning - Beginner - Vol.16 SHOPPING(English Only)
DYEAR=0
DGENRE=
TTITLE0=At Mr. Post's House.mp3
TTITLE1=At The Supermarket.mp3
TTITLE2=At The Depertment Store.mp3
EXTD=
EXTT0=
EXTT1=
EXTT2=
PLAYORDER=
